<svg width="125" height="45" viewBox="0 0 125 45" fill="none" xmlns="http://www.w3.org/2000/svg">
<g clip-path="url(#clip0_845_1132)">
<path d="M35.6822 31.4559C35.4879 30.9162 35.3057 30.3488 35.1114 29.8645L34.2128 27.5534L34.1764 27.5119C31.5049 20.8693 28.6512 14.116 25.6275 7.47341L25.5061 7.19664C25.2025 6.54622 24.8989 5.8266 24.5832 5.16234C24.1946 4.37354 23.8182 3.52937 23.1989 2.72673C22.5952 1.8869 21.8355 1.21027 20.9745 0.745653C20.1135 0.281041 19.1727 0.0400391 18.2201 0.0400391C17.2675 0.0400391 16.3267 0.281041 15.4658 0.745653C14.6048 1.21027 13.845 1.8869 13.2414 2.72673C12.6706 3.52937 12.2456 4.37354 11.857 5.16234C11.5534 5.88196 11.2499 6.58773 10.9341 7.23815L10.8127 7.51493C7.83759 14.1575 4.93535 20.9108 2.26382 27.5534L2.19096 27.6364C1.92381 28.356 1.60808 29.1033 1.3045 29.906C1.11021 30.3903 0.915915 30.9162 0.721623 31.4974C0.197072 33.0194 0.0295663 34.6709 0.235614 36.2891C0.441662 37.9073 1.01415 39.4364 1.89666 40.7257C2.77917 42.0149 3.94124 43.0199 5.26835 43.6415C6.59545 44.2631 8.04178 44.4799 9.4648 44.2706C10.8291 44.0659 12.1427 43.548 13.3264 42.7483C14.905 41.7381 16.4229 40.2712 18.123 38.1539C19.823 40.2712 21.3774 41.7381 22.9196 42.7621C24.4026 43.7542 26.0821 44.3017 27.8012 44.3536C29.7919 44.363 31.7184 43.5513 33.225 42.0684C34.7315 40.5855 35.7165 38.5315 35.9979 36.2856C36.3232 34.6717 36.2131 32.9835 35.6822 31.4421V31.4559ZM18.2444 33.7531C16.1558 30.7086 14.7957 27.9132 14.3343 25.5191C14.1431 24.632 14.1019 23.7114 14.2128 22.8067C14.2978 22.1009 14.5286 21.4782 14.8443 20.9523C15.5729 19.7484 16.8479 19.0011 18.2444 19.0011C18.9076 18.978 19.5654 19.1429 20.1589 19.4811C20.7523 19.8192 21.2628 20.32 21.6445 20.9385C21.9603 21.492 22.191 22.1009 22.2638 22.8067C22.3853 23.6094 22.3367 24.5366 22.1424 25.5191C21.681 27.8717 20.3209 30.6948 18.2444 33.7531ZM33.715 35.8013C33.577 36.9415 33.1793 38.0206 32.5614 38.9312C31.9435 39.8417 31.1271 40.5518 30.1934 40.9908C29.2705 41.4336 28.2505 41.5582 27.2547 41.4336C26.2833 41.2952 25.3118 40.9354 24.316 40.2712C22.6627 39.1066 21.1761 37.6598 19.908 35.9812C22.4581 32.3831 24.0003 29.1033 24.5832 26.1834C24.8625 24.7995 24.8989 23.554 24.7775 22.4054C24.6259 21.3167 24.2696 20.2782 23.7332 19.3609C23.1207 18.3662 22.3031 17.5583 21.3524 17.0081C20.4017 16.458 19.3469 16.1824 18.2808 16.2056C16.0343 16.2056 14.0307 17.3958 12.8163 19.347C12.2697 20.262 11.9164 21.3088 11.7842 22.4054C11.6263 23.5678 11.6627 24.8548 11.9785 26.1834C12.5613 29.1033 14.14 32.4246 16.6536 36.0089C15.4071 37.7195 13.917 39.1791 12.2456 40.3265C11.2377 40.9908 10.2784 41.3368 9.30693 41.4751C7.79617 41.6957 6.27008 41.2278 5.06038 40.1731C3.85067 39.1184 3.05514 37.5622 2.8467 35.8428C2.72527 34.7357 2.81027 33.6286 3.19886 32.3831C3.32029 31.9403 3.50244 31.4974 3.69673 30.9716C3.96388 30.2519 4.27961 29.5047 4.58319 28.7574L4.63176 28.6605C7.25472 22.0594 10.1205 15.32 13.0956 8.71889L13.2171 8.44212C13.5207 7.77786 13.8242 7.07209 14.14 6.40783C14.4557 5.70205 14.7957 5.02396 15.2329 4.47041C15.6113 3.95564 16.0841 3.54165 16.618 3.2576C17.152 2.97356 17.7341 2.82635 18.3233 2.82635C18.9126 2.82635 19.4947 2.97356 20.0286 3.2576C20.5626 3.54165 21.0354 3.95564 21.4138 4.47041C21.8388 5.02396 22.191 5.70205 22.5067 6.40783C22.8103 7.07209 23.1139 7.7917 23.4296 8.44212L23.551 8.71889C26.514 15.32 29.3798 22.0594 32.0513 28.6605L32.0878 28.702C32.4035 29.4216 32.6706 30.2243 32.9742 30.9162C33.1685 31.4559 33.3628 31.8849 33.4842 32.3416C33.715 33.5871 33.8364 34.6942 33.715 35.8013ZM50.6184 33.4487C49.7034 33.4639 48.7971 33.2442 47.9667 32.8058C47.1364 32.3674 46.4033 31.7216 45.8218 30.9162C44.5153 29.2001 43.8219 26.9875 43.8789 24.7165C43.8589 22.396 44.5747 20.1453 45.8947 18.3783C46.5053 17.5627 47.2653 16.9095 48.1213 16.4648C48.9773 16.0201 49.9084 15.7946 50.8492 15.8043C51.7343 15.7767 52.6111 16.0061 53.3971 16.4709C54.183 16.9357 54.8524 17.6206 55.3422 18.4614L55.4636 16.2887H59.0094V33.0059H55.4515L55.33 30.5702C54.8251 31.4679 54.1271 32.2036 53.3025 32.7073C52.4779 33.2111 51.5539 33.4663 50.6184 33.4487ZM51.5413 29.4631C52.2456 29.4631 52.8649 29.2417 53.4478 28.8404C53.9821 28.3976 54.4193 27.8163 54.7593 27.1106C55.0629 26.4048 55.2207 25.5606 55.2207 24.6196C55.2681 23.8023 55.1285 22.9849 54.8156 22.2475C54.5027 21.5101 54.0272 20.8779 53.4357 20.4126C52.8673 20.009 52.211 19.7951 51.5413 19.7951C50.8716 19.7951 50.2154 20.009 49.647 20.4126C49.1127 20.8555 48.6755 21.4367 48.3355 22.1425C48.0144 22.9208 47.8564 23.7736 47.874 24.6334C47.8267 25.4507 47.9663 26.2681 48.2792 27.0055C48.5921 27.7429 49.0676 28.3751 49.6591 28.8404C50.2298 29.2417 50.8492 29.4631 51.5413 29.4631ZM65.0811 11.7773C65.0811 12.2616 65.0082 12.7044 64.8139 13.0643C64.6197 13.4102 64.3525 13.7285 64.0003 13.9499C63.6482 14.1714 63.2717 14.2544 62.8832 14.2544C62.4946 14.2544 62.106 14.1714 61.7538 13.9499C61.4208 13.7386 61.1407 13.4337 60.9402 13.0643C60.7522 12.67 60.6599 12.2257 60.6731 11.7773C60.6731 11.2791 60.7581 10.8362 60.9402 10.4903C61.1345 10.0751 61.4138 9.82599 61.7538 9.60457C62.106 9.38315 62.4824 9.28628 62.8832 9.28628C63.2697 9.27613 63.6519 9.38046 63.9925 9.58907C64.333 9.79767 64.6203 10.1034 64.8261 10.4764C65.0028 10.8799 65.0903 11.3264 65.0811 11.7773ZM60.9524 32.9505V16.261H64.8139V32.9782H60.9402L60.9524 32.9505ZM75.1357 20.634V20.6894C74.9536 20.5925 74.7107 20.551 74.5286 20.5095C74.2857 20.4541 74.0914 20.4541 73.8607 20.4541C72.7799 20.4541 71.9663 20.8139 71.432 21.5612C70.8492 22.3224 70.582 23.3879 70.582 24.758V32.9643H66.7083V16.2472H70.2663L70.3877 18.7796C70.7763 17.894 71.2377 17.2297 71.8935 16.7315C72.5457 16.2475 73.3136 16.0057 74.0914 16.0396C74.3707 16.0396 74.6379 16.0673 74.8686 16.1226C74.99 16.1641 75.0629 16.1641 75.1357 16.2056V20.634ZM76.6901 32.9505V9.39699H80.5517V18.3922C81.0981 17.5895 81.7174 16.9668 82.4946 16.4824C83.7249 15.795 85.1227 15.5999 86.4622 15.9289C87.8017 16.2578 89.005 17.0914 89.8777 18.2953C91.1871 20.0149 91.8808 22.2331 91.8206 24.5089C91.8406 26.8293 91.1248 29.08 89.8048 30.847C89.1943 31.6626 88.4342 32.3158 87.5782 32.7605C86.7222 33.2052 85.7911 33.4307 84.8504 33.421C83.9652 33.4486 83.0884 33.2192 82.3025 32.7544C81.5165 32.2896 80.8471 31.6047 80.3574 30.764L80.2359 32.9367L76.6901 32.9782V32.9505ZM84.1582 29.4631C84.8504 29.4631 85.4697 29.2417 86.0526 28.8404C86.5869 28.3976 87.024 27.8163 87.3641 27.1106C87.6798 26.4048 87.8255 25.5606 87.8255 24.6196C87.8255 23.6924 87.6798 22.8482 87.3641 22.1425C87.0452 21.4619 86.5971 20.871 86.0526 20.4126C85.4842 20.009 84.8279 19.7951 84.1582 19.7951C83.4885 19.7951 82.8323 20.009 82.2639 20.4126C81.7174 20.8555 81.2924 21.4367 80.9402 22.1425C80.6191 22.9208 80.4611 23.7736 80.4788 24.6334C80.4315 25.4507 80.5711 26.2681 80.884 27.0055C81.1969 27.7429 81.6723 28.3751 82.2639 28.8404C82.8346 29.2417 83.4539 29.4631 84.1582 29.4631ZM93.2778 32.9643V16.2472H96.8358L96.9573 18.4198C97.4044 17.587 98.0386 16.9054 98.7944 16.4456C99.5501 15.9858 100.4 15.7644 101.256 15.8043C102.235 15.7851 103.197 16.0951 104.022 16.6957C104.847 17.2963 105.498 18.1607 105.895 19.181C106.32 20.2327 106.55 21.5336 106.55 22.9866V33.0059H102.677V23.5678C102.677 22.4054 102.446 21.492 101.985 20.8139C101.523 20.1497 100.892 19.7899 100.09 19.7899C99.5073 19.7899 98.9973 19.9283 98.548 20.2327C98.123 20.551 97.7709 20.9523 97.5037 21.5197C97.2336 22.0933 97.0996 22.7373 97.1151 23.3879V32.9643H93.2778ZM108.481 32.9643V9.38315H112.355V18.3783C112.88 17.5712 113.562 16.9146 114.348 16.4606C115.135 16.0065 116.003 15.7676 116.884 15.7628C117.799 15.7475 118.706 15.9673 119.536 16.4057C120.366 16.8441 121.1 17.4899 121.681 18.2953C122.981 20.0148 123.67 22.2262 123.612 24.495C123.633 26.8157 122.917 29.0668 121.596 30.8332C120.985 31.6488 120.225 32.302 119.369 32.7467C118.513 33.1914 117.582 33.4169 116.642 33.4072C115.756 33.4348 114.88 33.2054 114.094 32.7406C113.308 32.2758 112.638 31.5908 112.149 30.7501L112.039 32.9228L108.481 32.9643ZM115.986 29.4631C116.69 29.4631 117.309 29.2417 117.88 28.8404C118.427 28.3976 118.852 27.8163 119.204 27.1106C119.507 26.4048 119.665 25.5606 119.665 24.6196C119.713 23.8023 119.573 22.9849 119.26 22.2475C118.947 21.5101 118.472 20.8779 117.88 20.4126C117.312 20.009 116.655 19.7951 115.986 19.7951C115.316 19.7951 114.66 20.009 114.091 20.4126C113.557 20.8555 113.12 21.4367 112.78 22.1425C112.441 22.9138 112.282 23.7717 112.319 24.6334C112.271 25.4507 112.411 26.2681 112.724 27.0055C113.037 27.7429 113.512 28.3751 114.104 28.8404C114.674 29.2417 115.257 29.4631 115.986 29.4631Z" fill="#707070"/>
</g>
<defs>
<clipPath id="clip0_845_1132">
<rect width="123.862" height="44.2839" fill="white" transform="translate(0.17334 0.0686035)"/>
</clipPath>
</defs>
</svg>
