<svg width="129" height="39" viewBox="0 0 129 39" fill="none" xmlns="http://www.w3.org/2000/svg">
<path fill-rule="evenodd" clip-rule="evenodd" d="M80.7364 11.7248L78.6644 8.22322L74.9867 9.97401L72.9148 6.46206L69.2371 8.22322L67.1755 4.70091L63.4978 6.46206L61.4258 2.95012L57.7481 4.71127L55.6866 1.18896L51.9985 2.95012L44.1976 28.3522L53.6768 31.2529C54.0338 30.1079 54.7887 29.1285 55.8049 28.4915C56.8211 27.8546 58.0316 27.6021 59.2177 27.7798C60.4038 27.9574 61.4872 28.5535 62.2722 29.4603C63.0571 30.367 63.4919 31.5246 63.4978 32.724V32.8276C63.5185 33.2834 63.4667 33.7392 63.332 34.195L72.9666 37.1476L80.7364 11.7248Z" fill="#4D4D4D"/>
<path fill-rule="evenodd" clip-rule="evenodd" d="M33.4364 16.8861C33.2863 16.8613 33.1502 16.7835 33.0526 16.6669C32.955 16.5503 32.9024 16.4025 32.9045 16.2505V8.46667C32.9036 8.38124 32.9198 8.29651 32.9521 8.21742C32.9844 8.13833 33.0321 8.06648 33.0925 8.00607C33.1529 7.94566 33.2248 7.89792 33.3039 7.86563C33.383 7.83334 33.4677 7.81715 33.5531 7.81802H39.1769C39.5083 7.81716 39.8365 7.88159 40.143 8.0076C40.4495 8.13362 40.7281 8.31877 40.963 8.55247C41.1979 8.78617 41.3845 9.06386 41.5121 9.36966C41.6397 9.67547 41.7058 10.0034 41.7066 10.3348V16.2505C41.7065 16.346 41.6852 16.4403 41.6443 16.5266C41.6035 16.613 41.5441 16.6893 41.4703 16.75C41.3966 16.8107 41.3104 16.8544 41.2178 16.878C41.1252 16.9015 41.0285 16.9043 40.9347 16.8861C40.7859 16.8599 40.6513 16.7815 40.555 16.6651C40.4587 16.5486 40.407 16.4016 40.4093 16.2505V10.3413C40.4093 10.0144 40.2795 9.70093 40.0484 9.4698C39.8172 9.23867 39.5038 9.10883 39.1769 9.10883H37.951V16.244C37.9515 16.3309 37.9345 16.417 37.9011 16.4972C37.8676 16.5775 37.8184 16.6502 37.7564 16.711C37.6825 16.7842 37.592 16.8384 37.4926 16.8689C37.3931 16.8994 37.2878 16.9053 37.1856 16.8861C37.0355 16.8613 36.8994 16.7835 36.8018 16.6669C36.7042 16.5503 36.6516 16.4025 36.6537 16.2505V9.10883H34.2018V16.244C34.2024 16.3394 34.1819 16.4338 34.1419 16.5204C34.1018 16.607 34.0431 16.6837 33.97 16.745C33.8969 16.8063 33.8112 16.8508 33.719 16.8752C33.6267 16.8996 33.5302 16.9033 33.4364 16.8861ZM42.7899 20.2786C42.6387 20.2536 42.5017 20.1749 42.4039 20.0569C42.3062 19.9389 42.2544 19.7896 42.258 19.6364C42.2587 19.4662 42.3263 19.3032 42.4461 19.1823C42.5659 19.0601 42.7291 18.9902 42.9001 18.9877C43.4515 18.9877 43.925 18.6375 44.0807 18.1121L44.7488 15.8872L42.5629 8.57694C42.5368 8.49518 42.5272 8.40906 42.5346 8.32357C42.5421 8.23808 42.5664 8.15491 42.6062 8.0789C42.6461 8.00288 42.7006 7.93552 42.7666 7.88072C42.8326 7.82591 42.9089 7.78476 42.991 7.75964C43.1543 7.71435 43.3289 7.73351 43.4786 7.81317C43.6282 7.89284 43.7416 8.02692 43.7953 8.18775L45.4169 13.6364L47.0645 8.18775C47.1423 7.88937 47.4731 7.68829 47.8104 7.75315L47.8558 7.75964C48.2061 7.86991 48.4007 8.23964 48.2969 8.58342L46.0461 16.0818L45.3326 18.4818C45.1725 18.9983 44.855 19.4519 44.4245 19.7791C43.9866 20.1075 43.454 20.285 42.9066 20.285C42.8676 20.2865 42.8285 20.2844 42.7899 20.2786Z" fill="#FEFEFE"/>
<path fill-rule="evenodd" clip-rule="evenodd" d="M3.14442 15.4656H4.41577C4.75467 15.4656 5.0797 15.331 5.31934 15.0914C5.55898 14.8517 5.69361 14.5267 5.69361 14.1878V10.4451C5.69446 10.2773 5.66226 10.111 5.59883 9.95559C5.5354 9.80023 5.44199 9.65888 5.32393 9.53962C5.20587 9.42036 5.06548 9.32552 4.91077 9.26052C4.75606 9.19551 4.59007 9.16162 4.42226 9.16077H3.14442V15.4527V15.4656ZM2.34658 16.8019C2.19083 16.7755 2.04964 16.6944 1.94852 16.573C1.8474 16.4517 1.79302 16.2982 1.79523 16.1402V4.51645C1.79408 4.42751 1.81071 4.33925 1.84412 4.25682C1.87754 4.1744 1.92707 4.09947 1.98983 4.03645C2.06575 3.95761 2.15987 3.89864 2.26393 3.8647C2.36798 3.83077 2.47878 3.82293 2.58658 3.84185C2.91091 3.90672 3.14442 4.17915 3.14442 4.50996V7.81807H4.41577C4.76045 7.81721 5.10191 7.88437 5.4206 8.01568C5.73929 8.14699 6.02894 8.33988 6.27297 8.58331C6.517 8.82673 6.7106 9.11591 6.8427 9.43427C6.9748 9.75263 7.0428 10.0939 7.0428 10.4386V14.1813C7.04109 14.8758 6.76444 15.5413 6.27337 16.0324C5.78229 16.5235 5.11674 16.8001 4.42226 16.8019H2.46983C2.42647 16.8044 2.38297 16.8022 2.3401 16.7954L2.34658 16.8019Z" fill="#4D4D4D"/>
<path fill-rule="evenodd" clip-rule="evenodd" d="M11.6158 9.10883C11.5429 9.09611 11.4692 9.0896 11.3952 9.08937C11.2269 9.08764 11.06 9.11951 10.9042 9.18311C10.7484 9.24671 10.6068 9.34077 10.4878 9.45978C10.3688 9.57878 10.2747 9.72034 10.2111 9.87616C10.1475 10.032 10.1157 10.1989 10.1174 10.3672V14.2656C10.1165 14.4336 10.149 14.6002 10.2129 14.7556C10.2768 14.911 10.3709 15.0522 10.4897 15.1711C10.6086 15.2899 10.7498 15.384 10.9052 15.4479C11.0606 15.5118 11.2272 15.5443 11.3952 15.5434C11.7341 15.5434 12.0592 15.4088 12.2988 15.1692C12.5384 14.9295 12.6731 14.6045 12.6731 14.2656V10.3737C12.6731 9.74451 12.2255 9.2191 11.6158 9.10883ZM10.9347 16.8602C10.3265 16.7532 9.77567 16.4349 9.3793 15.9614C8.98293 15.4879 8.76651 14.8896 8.7682 14.2721V10.3737C8.76706 10.0287 8.83474 9.68692 8.96728 9.36838C9.09982 9.04984 9.29455 8.76093 9.54009 8.51856C9.78365 8.27507 10.0729 8.0821 10.3913 7.95075C10.7097 7.81939 11.0508 7.75224 11.3952 7.75316C12.0902 7.75316 12.7568 8.02925 13.2482 8.5207C13.7397 9.01214 14.0158 9.67869 14.0158 10.3737V14.2721C14.0158 14.9726 13.7433 15.6342 13.2439 16.1337C13.0013 16.3767 12.7131 16.5694 12.3959 16.7008C12.0786 16.8321 11.7386 16.8995 11.3952 16.8991C11.2409 16.8998 11.0868 16.8867 10.9347 16.8602ZM18.5887 9.11532C18.5159 9.10256 18.4421 9.09605 18.3682 9.09586C18.1999 9.09413 18.033 9.12599 17.8772 9.1896C17.7213 9.2532 17.5798 9.34726 17.4608 9.46626C17.3418 9.58527 17.2477 9.72683 17.1841 9.88265C17.1205 10.0385 17.0886 10.2054 17.0904 10.3737V14.2721C17.0895 14.4401 17.122 14.6067 17.1859 14.7621C17.2498 14.9175 17.3439 15.0587 17.4627 15.1776C17.5815 15.2964 17.7228 15.3905 17.8782 15.4544C18.0336 15.5183 18.2002 15.5508 18.3682 15.5499C18.5363 15.5508 18.7028 15.5183 18.8582 15.4544C19.0136 15.3905 19.1549 15.2964 19.2737 15.1776C19.3925 15.0587 19.4866 14.9175 19.5505 14.7621C19.6144 14.6067 19.6469 14.4401 19.646 14.2721V10.3737C19.646 9.751 19.1985 9.22559 18.5887 9.11532ZM17.9077 16.8602C17.3007 16.7518 16.7513 16.4329 16.3563 15.9595C15.9612 15.4862 15.7457 14.8886 15.7477 14.2721V10.3737C15.7487 9.99142 15.8331 9.61397 15.9951 9.26769C16.157 8.92141 16.3926 8.61466 16.6854 8.36883C16.9782 8.12301 17.321 7.94405 17.6901 7.84443C18.0592 7.74481 18.4456 7.72695 18.8223 7.79208C19.4305 7.89751 19.982 8.2143 20.3796 8.6866C20.7771 9.15889 20.9951 9.75637 20.9952 10.3737V14.2721C20.996 14.6186 20.9276 14.9618 20.7939 15.2814C20.6602 15.6011 20.4641 15.8909 20.2169 16.1337C19.9743 16.3767 19.6861 16.5694 19.3689 16.7008C19.0516 16.8321 18.7116 16.8995 18.3682 16.8991C18.2125 16.8991 18.0569 16.8861 17.9077 16.8602ZM23.272 16.8861C23.1162 16.8598 22.975 16.7787 22.8739 16.6573C22.7728 16.536 22.7184 16.3825 22.7206 16.2245V4.5164C22.7206 4.33478 22.7855 4.15964 22.9152 4.0364C22.9917 3.96087 23.0854 3.90491 23.1881 3.87329C23.2909 3.84168 23.3998 3.83532 23.5055 3.85478C23.8298 3.90667 24.0698 4.18559 24.0698 4.5164V11.444L27.1704 7.96721C27.326 7.79856 27.5596 7.72073 27.7931 7.75965C27.9108 7.77935 28.0211 7.83023 28.1125 7.90701C28.2039 7.98379 28.2731 8.08366 28.3128 8.19623C28.3526 8.3088 28.3614 8.42996 28.3384 8.54711C28.3155 8.66425 28.2615 8.77311 28.1823 8.86235L25.8406 11.4764L28.2601 15.9067C28.3037 15.9814 28.3318 16.0641 28.343 16.1498C28.3541 16.2356 28.348 16.3228 28.325 16.4061C28.2999 16.4921 28.2576 16.572 28.2008 16.6411C28.1439 16.7103 28.0736 16.7671 27.9941 16.8083C27.8568 16.8872 27.6959 16.9148 27.5401 16.8861C27.4432 16.8698 27.3511 16.8322 27.2704 16.7761C27.1896 16.7201 27.1223 16.6469 27.0731 16.5618L24.8936 12.5532L24.0633 13.4678V16.2245C24.0633 16.4034 23.9923 16.575 23.8658 16.7015C23.7392 16.828 23.5677 16.8991 23.3887 16.8991C23.3433 16.8991 23.3044 16.8991 23.259 16.8861H23.272ZM52.9866 16.8796C52.6218 16.8186 52.2753 16.6768 51.9723 16.4647C51.6693 16.2526 51.4175 15.9755 51.2352 15.6537C51.1461 15.496 51.1228 15.3095 51.1704 15.1348C51.2223 14.9661 51.3325 14.8234 51.4817 14.7326C51.6202 14.6569 51.7807 14.6317 51.9358 14.6613C52.1304 14.6937 52.3055 14.8105 52.4028 14.9856C52.5779 15.284 52.8569 15.4786 53.2006 15.5369C53.3779 15.5677 53.5598 15.5581 53.7328 15.5086C53.9058 15.4592 54.0653 15.3713 54.1996 15.2515C54.459 15.0115 54.5887 14.6678 54.5563 14.3305C54.5491 14.1576 54.5013 13.9888 54.4168 13.8378C54.3323 13.6868 54.2134 13.5578 54.0698 13.4613L52.2536 12.1705C51.9577 11.9627 51.7113 11.6922 51.5319 11.3782C51.3525 11.0643 51.2446 10.7147 51.2158 10.3542C51.1923 9.9906 51.2519 9.62638 51.3902 9.28922C51.5284 8.95206 51.7416 8.6508 52.0136 8.40829C52.279 8.16161 52.596 7.97714 52.9415 7.86831C53.2871 7.75947 53.6526 7.729 54.0114 7.7791C54.7769 7.90883 55.3996 8.34992 55.7563 8.97262C55.8423 9.12823 55.8646 9.31109 55.8187 9.48282C55.7727 9.65456 55.662 9.80182 55.5098 9.8937C55.3725 9.97265 55.2116 10.0002 55.0558 9.97154C54.9589 9.95516 54.8668 9.9176 54.786 9.86154C54.7053 9.80548 54.6379 9.7323 54.5887 9.64721C54.5074 9.50959 54.3965 9.39169 54.2642 9.30197C54.1319 9.21226 53.9813 9.15294 53.8233 9.12829C53.6617 9.09904 53.4955 9.10784 53.3379 9.15401C53.1802 9.20017 53.0355 9.28242 52.9152 9.39424C52.7978 9.5051 52.7061 9.64041 52.6467 9.79061C52.5873 9.9408 52.5616 10.1022 52.5714 10.2634C52.5844 10.5813 52.766 10.8926 53.0385 11.0742L54.8547 12.3391C55.163 12.555 55.4179 12.8384 55.6 13.1678C55.7822 13.4971 55.8866 13.8638 55.9055 14.2396C55.9356 14.6138 55.8779 14.9898 55.7372 15.3377C55.5964 15.6856 55.3764 15.996 55.0947 16.244C54.8207 16.4986 54.4934 16.6889 54.1366 16.8011C53.7797 16.9133 53.4024 16.9446 53.032 16.8926L52.9801 16.8796H52.9866ZM58.1952 16.8991C58.0394 16.8717 57.8982 16.7905 57.7962 16.6695C57.6943 16.5486 57.638 16.3957 57.6374 16.2375V4.52937C57.6365 4.44054 57.6534 4.35243 57.687 4.2702C57.7206 4.18796 57.7702 4.11325 57.833 4.05043C57.8959 3.98762 57.9706 3.93796 58.0528 3.90436C58.135 3.87077 58.2232 3.85391 58.312 3.85478L58.4417 3.86127C58.766 3.92613 58.9866 4.19208 58.9866 4.52937V7.83748H60.2644C60.6088 7.83663 60.9499 7.90383 61.2683 8.03522C61.5866 8.16661 61.8758 8.3596 62.1193 8.60311C62.3628 8.84662 62.5558 9.13585 62.6872 9.45417C62.8186 9.7725 62.8858 10.1136 62.885 10.458V16.231C62.8855 16.3289 62.8645 16.4258 62.8235 16.5147C62.7825 16.6037 62.7224 16.6825 62.6475 16.7456C62.5726 16.8087 62.4847 16.8546 62.3901 16.88C62.2956 16.9054 62.1965 16.9097 62.1001 16.8926C61.7758 16.8342 61.5423 16.5553 61.5423 16.2245V10.4515C61.5423 10.284 61.5092 10.1182 61.4449 9.96351C61.3806 9.80884 61.2863 9.6684 61.1676 9.55025C61.0489 9.43211 60.9079 9.3386 60.7529 9.27509C60.5979 9.21158 60.4319 9.17933 60.2644 9.18019H58.9866V16.231C58.9873 16.3296 58.9662 16.4271 58.9248 16.5166C58.8834 16.6061 58.8227 16.6853 58.747 16.7485C58.6714 16.8118 58.5827 16.8575 58.4873 16.8824C58.3919 16.9073 58.2921 16.9108 58.1952 16.8926V16.8991ZM67.4579 9.12181C67.2741 9.08844 67.0852 9.096 66.9047 9.14394C66.7241 9.19187 66.5563 9.27901 66.4133 9.39916C66.2702 9.5193 66.1554 9.6695 66.077 9.83906C65.9985 10.0086 65.9585 10.1934 65.9596 10.3802V14.2786C65.9587 14.4461 65.991 14.6121 66.0545 14.7671C66.118 14.9221 66.2115 15.063 66.3296 15.1817C66.4478 15.3005 66.5882 15.3947 66.7429 15.459C66.8976 15.5233 67.0634 15.5564 67.2309 15.5564C67.5682 15.5564 67.8925 15.4267 68.1325 15.1867C68.2527 15.0681 68.3479 14.9266 68.4125 14.7707C68.4771 14.6147 68.5098 14.4474 68.5087 14.2786V10.3737C68.5087 9.751 68.0677 9.2191 67.4515 9.11532L67.4579 9.12181ZM66.7704 16.8537C66.1639 16.7467 65.6147 16.4291 65.2195 15.9568C64.8244 15.4845 64.6086 14.8879 64.6104 14.2721V10.3737C64.6104 9.99087 64.6942 9.61268 64.8557 9.26561C65.0173 8.91854 65.2527 8.61098 65.5456 8.36444C65.8385 8.1179 66.1817 7.93836 66.5513 7.83837C66.9208 7.73838 67.3077 7.72037 67.685 7.78559C68.2943 7.89122 68.8467 8.20895 69.2444 8.68259C69.642 9.15623 69.8594 9.75525 69.8579 10.3737V14.2721C69.8582 14.6175 69.7895 14.9596 69.6559 15.2782C69.5222 15.5967 69.3263 15.8854 69.0796 16.1272C68.7821 16.426 68.4166 16.6481 68.0144 16.7747C67.6122 16.9012 67.1853 16.9283 66.7704 16.8537Z" fill="#4D4D4D"/>
<path fill-rule="evenodd" clip-rule="evenodd" d="M127.044 12.9989C127.08 12.8673 127.089 12.73 127.071 12.5949C127.053 12.4598 127.009 12.3296 126.941 12.2116C126.862 12.0858 126.76 11.9771 126.639 11.8916C126.518 11.8062 126.381 11.7459 126.236 11.7143C125.969 11.6638 125.693 11.7172 125.464 11.8635C125.235 12.0098 125.07 12.2381 125.003 12.5017C125.003 12.5535 123.843 17.2257 122.931 20.7791L122.911 20.8516L122.89 20.7791L120.818 12.512C120.778 12.3102 120.677 12.1255 120.529 11.9829C120.381 11.8402 120.192 11.7465 119.989 11.7143C119.928 11.7022 119.865 11.6953 119.803 11.6936C119.326 11.6936 118.912 12.0251 118.777 12.5017C118.767 12.5535 117.607 17.2257 116.705 20.7791L116.685 20.8516L116.664 20.7791C115.783 17.2257 114.592 12.5535 114.592 12.5017C114.543 12.3034 114.438 12.1235 114.289 11.9838C114.14 11.844 113.954 11.7504 113.753 11.7143C113.58 11.6838 113.403 11.6967 113.237 11.7517C113.07 11.8068 112.92 11.9023 112.8 12.0297C112.68 12.1571 112.593 12.3124 112.548 12.4815C112.503 12.6507 112.5 12.8285 112.541 12.9989L115.659 25.4617C115.718 25.6901 115.85 25.8928 116.035 26.0388C116.221 26.1847 116.449 26.2659 116.685 26.2697C117.192 26.2697 117.596 25.9382 117.7 25.4617L119.772 17.1843L119.803 17.1117L119.824 17.1843C120.735 20.7791 121.895 25.472 121.895 25.472C121.957 25.696 122.089 25.8943 122.272 26.0378C122.455 26.1813 122.679 26.2626 122.911 26.2697C123.149 26.2772 123.383 26.2002 123.571 26.0524C123.758 25.9047 123.888 25.6955 123.936 25.4617L127.044 12.9989Z" fill="#4D4D4D"/>
</svg>
