<svg width="30" height="30" viewBox="0 0 30 30" fill="none" xmlns="http://www.w3.org/2000/svg">
<path d="M27.1875 25.8619L20.1075 18.7819C21.8089 16.7394 22.6573 14.1195 22.4763 11.4674C22.2952 8.81529 21.0987 6.33505 19.1356 4.54267C17.1724 2.75029 14.5938 1.78376 11.9362 1.84414C9.27862 1.90453 6.7466 2.98718 4.8669 4.86688C2.9872 6.74658 1.90455 9.2786 1.84416 11.9362C1.78377 14.5938 2.75031 17.1724 4.54269 19.1355C6.33507 21.0987 8.8153 22.2952 11.4674 22.4762C14.1196 22.6573 16.7394 21.8089 18.7819 20.1075L25.8619 27.1875L27.1875 25.8619ZM3.75002 12.1875C3.75002 10.5187 4.24487 8.88742 5.17199 7.49988C6.09912 6.11234 7.41687 5.03088 8.95863 4.39227C10.5004 3.75365 12.1969 3.58656 13.8336 3.91212C15.4703 4.23769 16.9737 5.04128 18.1537 6.22129C19.3337 7.40129 20.1373 8.90471 20.4629 10.5414C20.7885 12.1781 20.6214 13.8746 19.9828 15.4164C19.3441 16.9581 18.2627 18.2759 16.8751 19.203C15.4876 20.1302 13.8563 20.625 12.1875 20.625C9.95051 20.6225 7.80584 19.7328 6.22404 18.151C4.64224 16.5692 3.7525 14.4245 3.75002 12.1875V12.1875Z" fill="black"/>
</svg>
