<svg width="23" height="27" viewBox="0 0 23 27" fill="none" xmlns="http://www.w3.org/2000/svg">
<path d="M4.94885 14.8855H15.6477L12.3731 19.573C12.2972 19.6818 12.2401 19.8072 12.205 19.9422C12.1699 20.0772 12.1574 20.2192 12.1683 20.36C12.1903 20.6443 12.3061 20.9065 12.4903 21.089C12.6746 21.2715 12.9121 21.3593 13.1506 21.3331C13.3891 21.3068 13.6092 21.1688 13.7623 20.9492L18.2728 14.4984C18.3031 14.4471 18.3302 14.3932 18.3539 14.3372C18.3539 14.2834 18.399 14.2511 18.4171 14.1974C18.458 14.0741 18.4794 13.9429 18.4802 13.8103C18.4794 13.6778 18.458 13.5466 18.4171 13.4233C18.4171 13.3695 18.372 13.3373 18.3539 13.2835C18.3302 13.2275 18.3031 13.1736 18.2728 13.1223L13.7623 6.67147C13.6775 6.55011 13.5713 6.45251 13.4512 6.38561C13.3312 6.31872 13.2002 6.28417 13.0677 6.28443C12.8569 6.28394 12.6526 6.37142 12.4903 6.53171C12.399 6.62196 12.3235 6.73281 12.2681 6.8579C12.2128 6.98299 12.1787 7.11986 12.1678 7.26068C12.1569 7.40149 12.1694 7.54349 12.2047 7.67853C12.2399 7.81357 12.2971 7.939 12.3731 8.04764L15.6477 12.7352H4.94885C4.7096 12.7352 4.48015 12.8485 4.31097 13.0501C4.14179 13.2517 4.04675 13.5252 4.04675 13.8103C4.04675 14.0955 4.14179 14.3689 4.31097 14.5706C4.48015 14.7722 4.7096 14.8855 4.94885 14.8855Z" fill="#83BF4F"/>
</svg>
