<svg width="17" height="17" viewBox="0 0 17 17" fill="none" xmlns="http://www.w3.org/2000/svg">
<path d="M7.3846 3.78682C7.3846 3.38016 7.65129 2.84682 7.99129 2.64016L8.93128 2.03349C9.80461 1.49349 11.0179 2.10016 11.0179 3.18016L11.0179 6.74683C11.0179 7.22016 11.2846 7.82682 11.5579 8.16016L14.118 10.8535C14.458 11.1935 14.7246 11.7935 14.7246 12.2002L14.7246 13.7468C14.7246 14.5535 14.1179 15.1602 13.3779 15.1602L4.48462 15.1602C3.74462 15.1602 3.13794 14.5535 3.13794 13.8135L3.13794 12.3335C3.13794 11.7935 3.47795 11.1202 3.81128 10.7868" stroke="white" stroke-miterlimit="10" stroke-linecap="round" stroke-linejoin="round"/>
<path d="M3.59912 13.1674C6.26579 13.5007 9.26579 9.16739 12.5991 9.50073" stroke="white" stroke-width="0.2"/>
<path d="M6.59928 13.8327C6.41519 13.8327 6.26595 13.6834 6.26595 13.4994C6.26595 13.3153 6.41519 13.166 6.59928 13.166C6.78338 13.166 6.93262 13.3153 6.93262 13.4994C6.93262 13.6834 6.78338 13.8327 6.59928 13.8327Z" stroke="white" stroke-width="0.554286" stroke-linecap="round" stroke-linejoin="round"/>
<path d="M8.59928 6.4987C8.41519 6.4987 8.26595 6.34946 8.26595 6.16537C8.26595 5.98127 8.41519 5.83203 8.59928 5.83203C8.78338 5.83203 8.93262 5.98127 8.93262 6.16537C8.93262 6.34946 8.78338 6.4987 8.59928 6.4987Z" stroke="white" stroke-width="0.666667" stroke-linecap="round" stroke-linejoin="round"/>
<path d="M9.26628 8.4987C9.08218 8.4987 8.93294 8.34946 8.93294 8.16537C8.93294 7.98127 9.08218 7.83203 9.26628 7.83203C9.45037 7.83203 9.59961 7.98127 9.59961 8.16537C9.59961 8.34946 9.45037 8.4987 9.26628 8.4987Z" stroke="white" stroke-width="0.666667" stroke-linecap="round" stroke-linejoin="round"/>
<path d="M7.92836 13.4961L12.2578 13.4961" stroke="white" stroke-width="0.554286" stroke-linecap="round" stroke-linejoin="round"/>
</svg>
