<svg width="17" height="17" viewBox="0 0 17 17" fill="none" xmlns="http://www.w3.org/2000/svg">
<path d="M15.599 8.50065C15.599 4.82065 12.6123 1.83398 8.93229 1.83398C5.25229 1.83398 2.26562 4.82065 2.26562 8.50065C2.26562 12.1807 5.25229 15.1673 8.93229 15.1673" stroke="white" stroke-width="1.5" stroke-linecap="round" stroke-linejoin="round"/>
<path d="M6.26585 2.5H6.93252C5.63252 6.39333 5.63252 10.6067 6.93252 14.5H6.26585" stroke="white" stroke-width="1.5" stroke-linecap="round" stroke-linejoin="round"/>
<path d="M10.9321 2.5C11.5788 4.44667 11.9055 6.47333 11.9055 8.5" stroke="white" stroke-width="1.5" stroke-linecap="round" stroke-linejoin="round"/>
<path d="M2.93213 11.1667V10.5C4.8788 11.1467 6.90546 11.4733 8.93213 11.4733" stroke="white" stroke-width="1.5" stroke-linecap="round" stroke-linejoin="round"/>
<path d="M2.93213 6.50039C6.82546 5.20039 11.0388 5.20039 14.9321 6.50039" stroke="white" stroke-width="1.5" stroke-linecap="round" stroke-linejoin="round"/>
<path d="M13.0655 14.7667C14.2437 14.7667 15.1988 13.8115 15.1988 12.6333C15.1988 11.4551 14.2437 10.5 13.0655 10.5C11.8873 10.5 10.9321 11.4551 10.9321 12.6333C10.9321 13.8115 11.8873 14.7667 13.0655 14.7667Z" stroke="white" stroke-width="1.5" stroke-linecap="round" stroke-linejoin="round"/>
<path d="M15.5988 15.1667L14.9321 14.5" stroke="white" stroke-width="1.5" stroke-linecap="round" stroke-linejoin="round"/>
</svg>
