<svg width="36" height="36" viewBox="0 0 36 36" fill="none" xmlns="http://www.w3.org/2000/svg">
<rect x="-0.5" y="0.5" width="35" height="35" rx="5.5" transform="matrix(-1 0 0 1 35 0)" stroke="#83BF4F"/>
<path d="M25 19H13.14L16.77 23.36C16.854 23.4611 16.9174 23.5778 16.9563 23.7034C16.9953 23.829 17.0091 23.961 16.997 24.0919C16.9726 24.3564 16.8442 24.6003 16.64 24.77C16.4358 24.9397 16.1725 25.0214 15.9081 24.997C15.6437 24.9726 15.3997 24.8442 15.23 24.64L10.23 18.64C10.1964 18.5923 10.1663 18.5421 10.14 18.49C10.14 18.44 10.09 18.41 10.07 18.36C10.0247 18.2453 10.0009 18.1233 10 18C10.0009 17.8767 10.0247 17.7547 10.07 17.64C10.07 17.59 10.12 17.56 10.14 17.51C10.1663 17.4579 10.1964 17.4077 10.23 17.36L15.23 11.36C15.324 11.2471 15.4418 11.1563 15.5748 11.0941C15.7079 11.0319 15.8531 10.9998 16 11C16.2337 10.9995 16.4601 11.0809 16.64 11.23C16.7413 11.314 16.825 11.4171 16.8863 11.5334C16.9477 11.6497 16.9855 11.7771 16.9975 11.908C17.0096 12.039 16.9957 12.1711 16.9567 12.2967C16.9176 12.4223 16.8542 12.539 16.77 12.64L13.14 17H25C25.2652 17 25.5196 17.1054 25.7071 17.2929C25.8946 17.4804 26 17.7348 26 18C26 18.2652 25.8946 18.5196 25.7071 18.7071C25.5196 18.8946 25.2652 19 25 19Z" fill="#83BF4F"/>
</svg>
