<svg width="36" height="36" viewBox="0 0 36 36" fill="none" xmlns="http://www.w3.org/2000/svg">
<rect width="36" height="36" rx="6" fill="#83BF4F"/>
<path d="M11 19H22.86L19.23 23.36C19.146 23.4611 19.0826 23.5778 19.0437 23.7034C19.0047 23.829 18.9909 23.961 19.003 24.0919C19.0274 24.3564 19.1558 24.6003 19.36 24.77C19.5642 24.9397 19.8275 25.0214 20.0919 24.997C20.3563 24.9726 20.6003 24.8442 20.77 24.64L25.77 18.64C25.8036 18.5923 25.8337 18.5421 25.86 18.49C25.86 18.44 25.91 18.41 25.93 18.36C25.9753 18.2453 25.9991 18.1233 26 18C25.9991 17.8767 25.9753 17.7547 25.93 17.64C25.93 17.59 25.88 17.56 25.86 17.51C25.8337 17.4579 25.8036 17.4077 25.77 17.36L20.77 11.36C20.676 11.2471 20.5582 11.1563 20.4252 11.0941C20.2921 11.0319 20.1469 10.9998 20 11C19.7663 10.9995 19.5399 11.0809 19.36 11.23C19.2587 11.314 19.175 11.4171 19.1137 11.5334C19.0523 11.6497 19.0145 11.7771 19.0025 11.908C18.9904 12.039 19.0043 12.1711 19.0433 12.2967C19.0824 12.4223 19.1458 12.539 19.23 12.64L22.86 17H11C10.7348 17 10.4804 17.1054 10.2929 17.2929C10.1054 17.4804 10 17.7348 10 18C10 18.2652 10.1054 18.5196 10.2929 18.7071C10.4804 18.8946 10.7348 19 11 19Z" fill="white"/>
</svg>
