<svg width="135" height="39" viewBox="0 0 135 39" fill="none" xmlns="http://www.w3.org/2000/svg">
<g clip-path="url(#clip0_845_1179)">
<path d="M14.6109 6.35278V17.1649H4.75939V6.35278H0.0822754V32.1624H4.75939V21.7013H14.6109V32.1624H19.288V6.35278H14.6109Z" fill="#707070"/>
<path d="M34.2566 23.8191C34.2566 24.8534 33.8489 25.8454 33.1233 26.5768C32.3977 27.3082 31.4135 27.7191 30.3873 27.7191C29.361 27.7191 28.3769 27.3082 27.6512 26.5768C26.9256 25.8454 26.5179 24.8534 26.5179 23.8191V12.7644H22.0814V23.8191C22.0814 26.0373 22.9557 28.1646 24.5118 29.7331C26.0679 31.3016 28.1785 32.1828 30.3792 32.1828C32.58 32.1828 34.6905 31.3016 36.2467 29.7331C37.8028 28.1646 38.6771 26.0373 38.6771 23.8191V12.7644H34.2566V23.8191Z" fill="#707070"/>
<path d="M67.1273 13.9032C67.1273 11.6373 68.6145 10.919 70.2438 10.919C71.5569 10.919 73.2917 11.9261 74.426 13.1479L77.3317 9.69712C75.8811 7.71994 72.9388 6.35254 70.5303 6.35254C65.718 6.35254 62.2371 9.19358 62.2371 13.9032C62.2371 22.6412 72.8333 19.8694 72.8333 24.7593C72.8333 26.2676 71.3805 27.6003 69.7168 27.6003C67.0929 27.6003 66.2427 26.3068 65.0374 24.9394L61.8131 28.3186C63.8755 30.871 66.4192 32.1668 69.467 32.1668C74.0387 32.1668 77.7167 29.2911 77.7167 24.7962C77.7167 15.0951 67.1204 18.1094 67.1204 13.9032" fill="#707070"/>
<path d="M132.68 28.0389C130.058 28.0389 129.314 26.8955 129.314 25.1447V17.3953H133.388V13.4687H129.314V8.28784L124.815 10.3228V26.1079C124.815 30.1454 127.579 32.1803 131.369 32.1803C131.964 32.1912 132.558 32.1433 133.143 32.0371L134.241 27.9649C133.746 27.9996 133.177 28.0342 132.68 28.0342" fill="#707070"/>
<path d="M51.1433 12.8941C48.9457 12.8941 47.4126 13.5363 45.93 15.003V6.50757H41.4866V22.2534C41.4866 28.148 45.7145 32.1855 50.465 32.1855C55.7356 32.1855 60.3715 28.0764 60.3715 22.5421C60.3715 17.0772 56.1046 12.8964 51.1433 12.8964V12.8941ZM51.1158 27.6791C50.1187 27.6791 49.144 27.3811 48.3149 26.8227C47.4858 26.2643 46.8397 25.4707 46.4581 24.5422C46.0765 23.6137 45.9767 22.5919 46.1712 21.6062C46.3657 20.6205 46.8459 19.715 47.5509 19.0044C48.256 18.2937 49.1543 17.8097 50.1323 17.6137C51.1102 17.4176 52.1239 17.5182 53.0451 17.9028C53.9663 18.2874 54.7537 18.9388 55.3076 19.7744C55.8616 20.6101 56.1573 21.5925 56.1573 22.5976C56.1573 23.9453 55.6261 25.2378 54.6807 26.1908C53.7352 27.1437 52.4529 27.6791 51.1158 27.6791Z" fill="#707070"/>
<path d="M99.3901 22.3065C99.3901 16.763 94.7634 12.6631 89.4836 12.6631C84.7332 12.6631 80.5052 16.7006 80.5052 22.5952V38.3502H84.9486V29.8433C86.4289 31.3077 87.9643 31.9521 90.1596 31.9521C95.1209 31.9521 99.3878 27.7737 99.3878 22.3065H99.3901ZM95.1828 22.251C95.1828 23.2561 94.8871 24.2385 94.3331 25.0742C93.7792 25.9098 92.9918 26.5611 92.0706 26.9457C91.1494 27.3304 90.1357 27.431 89.1577 27.2349C88.1798 27.0388 87.2815 26.5549 86.5764 25.8442C85.8714 25.1335 85.3912 24.2281 85.1967 23.2424C85.0022 22.2567 85.102 21.2349 85.4836 20.3064C85.8651 19.3779 86.5113 18.5842 87.3404 18.0259C88.1695 17.4675 89.1442 17.1695 90.1413 17.1695C91.4784 17.1695 92.7607 17.7049 93.7061 18.6578C94.6516 19.6108 95.1828 20.9033 95.1828 22.251Z" fill="#707070"/>
<path d="M113.745 12.4464V7.94692C114.335 7.66908 114.834 7.22806 115.185 6.67521C115.536 6.12235 115.724 5.4804 115.727 4.82408V4.72014C115.727 3.80125 115.365 2.91999 114.72 2.27024C114.076 1.62048 113.201 1.25545 112.29 1.25545H112.187C111.275 1.25545 110.401 1.62048 109.756 2.27024C109.111 2.91999 108.749 3.80125 108.749 4.72014V4.82408C108.752 5.4804 108.94 6.12235 109.291 6.67521C109.642 7.22806 110.141 7.66908 110.731 7.94692V12.4464C109.036 12.7078 107.439 13.4162 106.102 14.4998L93.8607 4.88875C93.9474 4.57182 93.9936 4.24505 93.9982 3.91633C93.9996 3.14419 93.7737 2.38898 93.3492 1.74624C92.9247 1.10349 92.3206 0.602084 91.6133 0.305436C90.9061 0.00878828 90.1274 -0.0697733 89.3758 0.0796883C88.6243 0.22915 87.9335 0.59992 87.3911 1.1451C86.8486 1.69028 86.4787 2.38538 86.3282 3.14248C86.1777 3.89958 86.2533 4.68466 86.5455 5.39842C86.8377 6.11219 87.3334 6.72256 87.9698 7.15235C88.6062 7.58214 89.3548 7.81203 90.1209 7.81295C90.7908 7.80993 91.4481 7.62994 92.0275 7.29094L104.083 16.7449C103 18.394 102.435 20.3339 102.462 22.3116C102.488 24.2892 103.105 26.2129 104.232 27.8319L100.566 31.5276C100.269 31.4321 99.9605 31.3815 99.6493 31.3774C99.0204 31.3779 98.4057 31.5662 97.883 31.9187C97.3603 32.2711 96.953 32.7719 96.7125 33.3576C96.4721 33.9433 96.4093 34.5878 96.5321 35.2094C96.6549 35.8311 96.9578 36.4022 97.4025 36.8504C97.8471 37.2986 98.4137 37.6039 99.0305 37.7277C99.6473 37.8515 100.287 37.7882 100.868 37.5458C101.449 37.3034 101.946 36.8929 102.295 36.366C102.645 35.8391 102.832 35.2196 102.832 34.5857C102.828 34.272 102.778 33.9606 102.683 33.6618L106.311 30.0054C107.494 30.9229 108.869 31.5553 110.332 31.8543C111.795 32.1533 113.306 32.1108 114.75 31.7302C116.194 31.3495 117.533 30.6408 118.663 29.6583C119.793 28.6758 120.685 27.4456 121.271 26.0619C121.857 24.6782 122.121 23.1777 122.043 21.6754C121.964 20.173 121.546 18.7087 120.819 17.3945C120.093 16.0803 119.078 14.9511 117.851 14.0934C116.625 13.2358 115.22 12.6724 113.745 12.4464ZM112.242 27.2429C111.249 27.242 110.279 26.9446 109.455 26.3883C108.63 25.832 107.988 25.0418 107.608 24.1176C107.229 23.1933 107.13 22.1765 107.324 21.1956C107.518 20.2148 107.996 19.3139 108.698 18.6068C109.4 17.8997 110.294 17.4182 111.267 17.2232C112.241 17.0281 113.249 17.1282 114.166 17.5109C115.083 17.8935 115.867 18.5415 116.418 19.3729C116.97 20.2044 117.264 21.182 117.265 22.1822C117.265 23.5237 116.736 24.8104 115.795 25.759C114.854 26.7077 113.577 27.2406 112.246 27.2406" fill="#4D4D4D"/>
</g>
<defs>
<clipPath id="clip0_845_1179">
<rect width="134.158" height="38.331" fill="white" transform="translate(0.0822754 0.00805664)"/>
</clipPath>
</defs>
</svg>
