<svg width="17" height="17" viewBox="0 0 17 17" fill="none" xmlns="http://www.w3.org/2000/svg">
<path d="M13.5534 12.2031L15.1534 10.1365C15.4201 9.86979 15.5534 9.26979 15.5534 8.86979L15.5534 6.33646C15.5534 5.53646 14.9534 4.66979 14.1534 4.46979L9.28676 2.86979C8.35343 2.53646 7.55343 3.13646 7.55343 4.13646L7.55343 6.80312C7.55343 7.20312 7.22009 7.53646 6.75343 7.46979L4.62009 7.13646C4.02009 7.00312 3.82013 7.5901 3.62013 8.1901C3.42013 8.72344 3.22009 9.20312 3.62009 9.46979L7.68676 12.2031" stroke="white" stroke-miterlimit="10"/>
<path d="M10.3705 3.52909L9.9375 7.51953" stroke="white"/>
<path d="M12.9867 3.85807L12.6533 7.19141" stroke="white"/>
<path d="M13.4427 14.5234L7.1976 14.5234C6.30544 14.5234 5.98682 14.2834 5.98682 13.7234L5.98682 13.3234C5.98682 12.7634 6.30544 12.5234 7.1976 12.5234L13.4427 12.5234C14.3349 12.5234 14.6535 12.7634 14.6535 13.3234L14.6535 13.7234C14.6535 14.2834 14.3349 14.5234 13.4427 14.5234Z" stroke="white" stroke-linecap="round" stroke-linejoin="round"/>
</svg>
