<svg width="163" height="23" viewBox="0 0 163 23" fill="none" xmlns="http://www.w3.org/2000/svg">
<path d="M33.548 16.072C32.916 16.072 32.34 15.952 31.82 15.712C31.308 15.464 30.864 15.136 30.488 14.728C30.112 14.312 29.824 13.848 29.624 13.336C29.424 12.816 29.324 12.28 29.324 11.728C29.324 11.168 29.428 10.632 29.636 10.12C29.852 9.6 30.148 9.14 30.524 8.74C30.908 8.332 31.36 8.012 31.88 7.78C32.4 7.548 32.968 7.432 33.584 7.432C34.216 7.432 34.788 7.556 35.3 7.804C35.82 8.044 36.264 8.372 36.632 8.788C37.008 9.204 37.296 9.672 37.496 10.192C37.696 10.704 37.796 11.228 37.796 11.764C37.796 12.324 37.688 12.864 37.472 13.384C37.264 13.896 36.968 14.356 36.584 14.764C36.208 15.164 35.76 15.484 35.24 15.724C34.728 15.956 34.164 16.072 33.548 16.072ZM31.328 11.752C31.328 12.192 31.412 12.608 31.58 13C31.748 13.384 32 13.7 32.336 13.948C32.672 14.196 33.08 14.32 33.56 14.32C34.056 14.32 34.468 14.192 34.796 13.936C35.132 13.68 35.38 13.356 35.54 12.964C35.708 12.564 35.792 12.152 35.792 11.728C35.792 11.288 35.704 10.876 35.528 10.492C35.36 10.1 35.108 9.784 34.772 9.544C34.444 9.304 34.04 9.184 33.56 9.184C33.064 9.184 32.648 9.312 32.312 9.568C31.984 9.816 31.736 10.136 31.568 10.528C31.408 10.92 31.328 11.328 31.328 11.752ZM42.5932 16.072C41.9132 16.072 41.3332 15.96 40.8532 15.736C40.3732 15.504 39.9812 15.192 39.6772 14.8C39.3812 14.4 39.1612 13.948 39.0172 13.444C38.8812 12.932 38.8132 12.396 38.8132 11.836V7.48H40.7812V11.836C40.7812 12.268 40.8372 12.672 40.9492 13.048C41.0692 13.424 41.2612 13.732 41.5252 13.972C41.7892 14.204 42.1452 14.32 42.5932 14.32C43.0492 14.32 43.4092 14.2 43.6732 13.96C43.9372 13.72 44.1252 13.412 44.2372 13.036C44.3492 12.66 44.4052 12.26 44.4052 11.836V7.48H46.3732V11.836C46.3732 12.62 46.2412 13.332 45.9772 13.972C45.7132 14.612 45.3012 15.124 44.7412 15.508C44.1892 15.884 43.4732 16.072 42.5932 16.072ZM47.898 16V7.48H51.738C52.138 7.48 52.506 7.564 52.842 7.732C53.186 7.892 53.482 8.112 53.73 8.392C53.978 8.664 54.17 8.972 54.306 9.316C54.45 9.66 54.522 10.008 54.522 10.36C54.522 10.888 54.394 11.376 54.138 11.824C53.89 12.264 53.554 12.6 53.13 12.832L55.002 16H52.83L51.198 13.252H49.866V16H47.898ZM49.866 11.536H51.666C51.898 11.536 52.098 11.428 52.266 11.212C52.434 10.988 52.518 10.704 52.518 10.36C52.518 10.016 52.422 9.74 52.23 9.532C52.038 9.316 51.83 9.208 51.606 9.208H49.866V11.536ZM58.7379 16V7.48H60.7059V14.272H64.8339V16H58.7379ZM69.3371 16.072C68.7051 16.072 68.1291 15.952 67.6091 15.712C67.0971 15.464 66.6531 15.136 66.2771 14.728C65.9011 14.312 65.6131 13.848 65.4131 13.336C65.2131 12.816 65.1131 12.28 65.1131 11.728C65.1131 11.168 65.2171 10.632 65.4251 10.12C65.6411 9.6 65.9371 9.14 66.3131 8.74C66.6971 8.332 67.1491 8.012 67.6691 7.78C68.1891 7.548 68.7571 7.432 69.3731 7.432C70.0051 7.432 70.5771 7.556 71.0891 7.804C71.6091 8.044 72.0531 8.372 72.4211 8.788C72.7971 9.204 73.0851 9.672 73.2851 10.192C73.4851 10.704 73.5851 11.228 73.5851 11.764C73.5851 12.324 73.4771 12.864 73.2611 13.384C73.0531 13.896 72.7571 14.356 72.3731 14.764C71.9971 15.164 71.5491 15.484 71.0291 15.724C70.5171 15.956 69.9531 16.072 69.3371 16.072ZM67.1171 11.752C67.1171 12.192 67.2011 12.608 67.3691 13C67.5371 13.384 67.7891 13.7 68.1251 13.948C68.4611 14.196 68.8691 14.32 69.3491 14.32C69.8451 14.32 70.2571 14.192 70.5851 13.936C70.9211 13.68 71.1691 13.356 71.3291 12.964C71.4971 12.564 71.5811 12.152 71.5811 11.728C71.5811 11.288 71.4931 10.876 71.3171 10.492C71.1491 10.1 70.8971 9.784 70.5611 9.544C70.2331 9.304 69.8291 9.184 69.3491 9.184C68.8531 9.184 68.4371 9.312 68.1011 9.568C67.7731 9.816 67.5251 10.136 67.3571 10.528C67.1971 10.92 67.1171 11.328 67.1171 11.752ZM75.4915 7.48L77.3275 11.248L79.1875 7.48H81.3355L78.2995 13.096V16H76.3435V13.072L73.3555 7.48H75.4915ZM83.3859 7.48H85.5099L88.4379 16H86.4219L85.7619 14.092H83.1099L82.4619 16H80.4459L83.3859 7.48ZM85.4379 12.736L84.4419 9.46L83.4219 12.736H85.4379ZM89.2769 16V7.48H91.2449V14.272H95.3729V16H89.2769ZM98.7457 16V7.48H102.382C102.79 7.48 103.162 7.564 103.498 7.732C103.842 7.892 104.138 8.112 104.386 8.392C104.634 8.664 104.826 8.972 104.962 9.316C105.098 9.66 105.166 10.008 105.166 10.36C105.166 10.856 105.05 11.324 104.818 11.764C104.594 12.204 104.278 12.564 103.87 12.844C103.462 13.116 102.986 13.252 102.442 13.252H100.714V16H98.7457ZM100.714 11.536H102.322C102.554 11.536 102.754 11.436 102.922 11.236C103.09 11.036 103.174 10.744 103.174 10.36C103.174 9.968 103.074 9.68 102.874 9.496C102.682 9.304 102.474 9.208 102.25 9.208H100.714V11.536ZM107.749 7.48H109.873L112.801 16H110.785L110.125 14.092H107.473L106.825 16H104.809L107.749 7.48ZM109.801 12.736L108.805 9.46L107.785 12.736H109.801ZM113.64 16V7.48H117.48C117.88 7.48 118.248 7.564 118.584 7.732C118.928 7.892 119.224 8.112 119.472 8.392C119.72 8.664 119.912 8.972 120.048 9.316C120.192 9.66 120.264 10.008 120.264 10.36C120.264 10.888 120.136 11.376 119.88 11.824C119.632 12.264 119.296 12.6 118.872 12.832L120.744 16H118.572L116.94 13.252H115.608V16H113.64ZM115.608 11.536H117.408C117.64 11.536 117.84 11.428 118.008 11.212C118.176 10.988 118.26 10.704 118.26 10.36C118.26 10.016 118.164 9.74 117.972 9.532C117.78 9.316 117.572 9.208 117.348 9.208H115.608V11.536ZM128.066 9.208H125.474V16H123.506V9.208H120.902V7.48H128.066V9.208ZM130.995 11.128V16H129.027V7.48H130.587L134.535 12.496V7.48H136.503V16H134.895L130.995 11.128ZM144.12 14.272V16H138.132V7.48H144.012V9.208H140.1V10.864H143.46V12.46H140.1V14.272H144.12ZM145.316 16V7.48H149.156C149.556 7.48 149.924 7.564 150.26 7.732C150.604 7.892 150.9 8.112 151.148 8.392C151.396 8.664 151.588 8.972 151.724 9.316C151.868 9.66 151.94 10.008 151.94 10.36C151.94 10.888 151.812 11.376 151.556 11.824C151.308 12.264 150.972 12.6 150.548 12.832L152.42 16H150.248L148.616 13.252H147.284V16H145.316ZM147.284 11.536H149.084C149.316 11.536 149.516 11.428 149.684 11.212C149.852 10.988 149.936 10.704 149.936 10.36C149.936 10.016 149.84 9.74 149.648 9.532C149.456 9.316 149.248 9.208 149.024 9.208H147.284V11.536ZM158.467 9.976C158.443 9.944 158.359 9.884 158.215 9.796C158.071 9.708 157.891 9.616 157.675 9.52C157.459 9.416 157.223 9.332 156.967 9.268C156.711 9.196 156.455 9.16 156.199 9.16C155.495 9.16 155.143 9.396 155.143 9.868C155.143 10.156 155.295 10.36 155.599 10.48C155.911 10.6 156.355 10.744 156.931 10.912C157.475 11.064 157.943 11.24 158.335 11.44C158.735 11.632 159.043 11.892 159.259 12.22C159.475 12.54 159.583 12.964 159.583 13.492C159.583 13.972 159.495 14.38 159.319 14.716C159.143 15.044 158.903 15.312 158.599 15.52C158.295 15.72 157.951 15.868 157.567 15.964C157.191 16.052 156.799 16.096 156.391 16.096C155.759 16.096 155.119 16.004 154.471 15.82C153.823 15.628 153.251 15.368 152.755 15.04L153.619 13.324C153.651 13.364 153.755 13.44 153.931 13.552C154.107 13.656 154.327 13.768 154.591 13.888C154.855 14.008 155.143 14.112 155.455 14.2C155.775 14.28 156.099 14.32 156.427 14.32C157.123 14.32 157.471 14.108 157.471 13.684C157.471 13.468 157.379 13.3 157.195 13.18C157.019 13.052 156.775 12.944 156.463 12.856C156.151 12.76 155.799 12.652 155.407 12.532C154.623 12.292 154.043 12 153.667 11.656C153.299 11.312 153.115 10.82 153.115 10.18C153.115 9.58 153.255 9.076 153.535 8.668C153.823 8.252 154.207 7.94 154.687 7.732C155.167 7.516 155.691 7.408 156.259 7.408C156.859 7.408 157.427 7.512 157.963 7.72C158.499 7.92 158.955 8.128 159.331 8.344L158.467 9.976ZM160.57 16V14.044H162.142V16H160.57Z" fill="#659938"/>
<g clip-path="url(#clip0_336_191)">
<path d="M17.065 10.6367C17.3478 10.9242 17.6307 11.2117 17.8192 11.4992C16.8293 12.6971 14.6608 14.9012 11.8795 15.1408C9.75822 15.3804 7.54262 14.3742 5.37416 12.17L4.76133 11.5471C6.83551 9.24708 8.95683 7.95333 11.031 7.8575C13.5766 7.66583 15.7451 9.295 17.065 10.6367ZM18.0078 9.67833C15.4151 7.04292 9.66394 3.20958 3.01714 11.4992C3.48854 12.0742 3.95994 12.6492 4.43135 13.1283C12.8695 21.7054 19.5163 11.4992 19.5163 11.4992C19.5163 11.4992 18.9977 10.6846 18.0078 9.67833ZM16.0279 11.4992C11.3139 6.7075 6.59981 11.4992 6.59981 11.4992C12.2567 9.5825 16.0279 11.4992 16.0279 11.4992Z" fill="#659938"/>
</g>
<defs>
<clipPath id="clip0_336_191">
<rect width="16.1323" height="16.1323" fill="white" transform="matrix(0.701309 0.712857 -0.701309 0.712857 11.3137 0)"/>
</clipPath>
</defs>
</svg>
