<svg width="17" height="17" viewBox="0 0 17 17" fill="none" xmlns="http://www.w3.org/2000/svg">
<path d="M12.9321 10.5003V13.167C12.9321 14.267 12.0321 15.167 10.9321 15.167H6.93213C5.83213 15.167 4.93213 14.267 4.93213 13.167V9.82031L7.52547 9.83365C8.01214 9.83365 8.49213 9.94698 8.93213 10.167C9.37213 10.387 9.85213 10.5003 10.3455 10.5003H12.9321Z" stroke="white" stroke-width="1.5" stroke-linecap="round" stroke-linejoin="round"/>
<path d="M12.9321 7.72065V10.5007H10.3455C9.85213 10.5007 9.37213 10.3873 8.93213 10.1673C8.49213 9.94732 8.01214 9.83398 7.52547 9.83398L4.93213 9.82065V7.72065C4.93213 7.41399 5.10548 6.99399 5.32548 6.77399L6.73881 5.36065C6.85881 5.24065 6.93213 5.06732 6.93213 4.89398V3.83398H10.9321V4.89398C10.9321 5.06732 11.0054 5.24065 11.1254 5.36065L12.5388 6.77399C12.7588 6.99399 12.9321 7.41399 12.9321 7.72065Z" stroke="white" stroke-width="1.5" stroke-linecap="round" stroke-linejoin="round"/>
<path d="M12.9321 11.1667V10.5" stroke="white" stroke-width="1.5" stroke-linecap="round" stroke-linejoin="round"/>
<path d="M4.93213 10.487V9.82031" stroke="white" stroke-width="1.5" stroke-linecap="round" stroke-linejoin="round"/>
<path d="M10.599 3.83398H7.26563C6.71229 3.83398 6.26562 3.38065 6.26562 2.83398C6.26562 2.28732 6.71229 1.83398 7.26563 1.83398H10.599C11.1523 1.83398 11.599 2.28732 11.599 2.83398C11.599 3.38065 11.1523 3.83398 10.599 3.83398Z" stroke="white" stroke-width="1.5" stroke-linecap="round" stroke-linejoin="round"/>
</svg>
