<svg width="20" height="20" viewBox="0 0 20 20" fill="none" xmlns="http://www.w3.org/2000/svg">
<path d="M8.33341 10.0007C8.33341 10.4427 8.50901 10.8666 8.82157 11.1792C9.13413 11.4917 9.55805 11.6673 10.0001 11.6673C10.4421 11.6673 10.866 11.4917 11.1786 11.1792C11.4912 10.8666 11.6667 10.4427 11.6667 10.0007C11.6667 9.55862 11.4912 9.1347 11.1786 8.82214C10.866 8.50958 10.4421 8.33398 10.0001 8.33398C9.55805 8.33398 9.13413 8.50958 8.82157 8.82214C8.50901 9.1347 8.33341 9.55862 8.33341 10.0007ZM8.33341 5.00065C8.33341 5.44268 8.50901 5.8666 8.82157 6.17916C9.13413 6.49172 9.55805 6.66732 10.0001 6.66732C10.4421 6.66732 10.866 6.49172 11.1786 6.17916C11.4912 5.8666 11.6667 5.44268 11.6667 5.00065C11.6667 4.55862 11.4912 4.1347 11.1786 3.82214C10.866 3.50958 10.4421 3.33398 10.0001 3.33398C9.55805 3.33398 9.13413 3.50958 8.82157 3.82214C8.50901 4.1347 8.33341 4.55862 8.33341 5.00065ZM8.33341 15.0007C8.33341 15.4427 8.50901 15.8666 8.82157 16.1792C9.13413 16.4917 9.55805 16.6673 10.0001 16.6673C10.4421 16.6673 10.866 16.4917 11.1786 16.1792C11.4912 15.8666 11.6667 15.4427 11.6667 15.0007C11.6667 14.5586 11.4912 14.1347 11.1786 13.8221C10.866 13.5096 10.4421 13.334 10.0001 13.334C9.55805 13.334 9.13413 13.5096 8.82157 13.8221C8.50901 14.1347 8.33341 14.5586 8.33341 15.0007Z" fill="black" fill-opacity="0.25"/>
</svg>
