<svg width="101" height="39" viewBox="0 0 101 39" fill="none" xmlns="http://www.w3.org/2000/svg">
<g clip-path="url(#clip0_845_1172)">
<path d="M82.8436 36.7098C92.4005 36.7098 100.177 28.8079 100.177 19.0967C100.177 9.37982 92.4005 1.48364 82.8436 1.48364C73.2848 1.48364 65.5106 9.37982 65.5106 19.0967C65.5106 28.8079 73.2848 36.7098 82.8436 36.7098ZM82.8436 12.8162C86.2495 12.8162 89.0231 15.6335 89.0231 19.0948C89.0231 22.5561 86.2476 25.3696 82.8417 25.3696C79.434 25.3696 76.6641 22.5561 76.6641 19.0929C76.6641 15.6278 79.4359 12.8124 82.8417 12.8124L82.8436 12.8162ZM17.449 36.7098C27.0059 36.7098 34.782 28.8079 34.782 19.0967C34.782 9.37982 27.0059 1.48364 17.449 1.48364C7.89399 1.48364 0.115967 9.37982 0.115967 19.0967C0.115967 28.8079 7.89399 36.7098 17.449 36.7098ZM17.449 12.8162C20.8567 12.8162 23.6285 15.6335 23.6285 19.0948C23.6285 22.5561 20.8567 25.3696 17.449 25.3696C14.0431 25.3696 11.2733 22.5561 11.2733 19.0929C11.2733 15.6278 14.045 12.8124 17.449 12.8124V12.8162ZM50.1368 12.4195L44.8154 1.71363H32.3557L43.9934 25.1339V36.1598H56.2821V25.1339L67.9197 1.71363H55.4544L50.1387 12.4195H50.1368Z" fill="#707070"/>
</g>
<defs>
<clipPath id="clip0_845_1172">
<rect width="100.619" height="38.331" fill="white" transform="translate(0.115967 0.00805664)"/>
</clipPath>
</defs>
</svg>
