<svg width="17" height="17" viewBox="0 0 17 17" fill="none" xmlns="http://www.w3.org/2000/svg">
<path d="M12.9323 5.27399C12.8923 5.26732 12.8457 5.26732 12.8057 5.27399C11.8857 5.24065 11.1523 4.48732 11.1523 3.55399C11.1523 2.60065 11.919 1.83398 12.8723 1.83398C13.8257 1.83398 14.5923 2.60732 14.5923 3.55399C14.5857 4.48732 13.8523 5.24065 12.9323 5.27399Z" stroke="white" stroke-width="1.5" stroke-linecap="round" stroke-linejoin="round"/>
<path d="M12.2461 10.1274C13.1594 10.2808 14.1661 10.1208 14.8727 9.64742C15.8127 9.02076 15.8127 7.99409 14.8727 7.36743C14.1594 6.89409 13.1394 6.73409 12.2261 6.89409" stroke="white" stroke-width="1.5" stroke-linecap="round" stroke-linejoin="round"/>
<path d="M4.91244 5.27399C4.95244 5.26732 4.99911 5.26732 5.03911 5.27399C5.95911 5.24065 6.69244 4.48732 6.69244 3.55399C6.69244 2.60065 5.92578 1.83398 4.97244 1.83398C4.01911 1.83398 3.25244 2.60732 3.25244 3.55399C3.25911 4.48732 3.99244 5.24065 4.91244 5.27399Z" stroke="white" stroke-width="1.5" stroke-linecap="round" stroke-linejoin="round"/>
<path d="M5.59876 10.1274C4.68542 10.2808 3.67876 10.1208 2.97209 9.64742C2.03209 9.02076 2.03209 7.99409 2.97209 7.36743C3.68542 6.89409 4.70542 6.73409 5.61875 6.89409" stroke="white" stroke-width="1.5" stroke-linecap="round" stroke-linejoin="round"/>
<path d="M8.93234 10.2525C8.89234 10.2458 8.84568 10.2458 8.80568 10.2525C7.88568 10.2192 7.15234 9.46583 7.15234 8.5325C7.15234 7.57917 7.91901 6.8125 8.87234 6.8125C9.82568 6.8125 10.5923 7.58583 10.5923 8.5325C10.5857 9.46583 9.85234 10.2258 8.93234 10.2525Z" stroke="white" stroke-width="1.5" stroke-linecap="round" stroke-linejoin="round"/>
<path d="M6.99211 12.3523C6.05211 12.9789 6.05211 14.0056 6.99211 14.6323C8.05878 15.3456 9.80544 15.3456 10.8721 14.6323C11.8121 14.0056 11.8121 12.9789 10.8721 12.3523C9.81211 11.6456 8.05878 11.6456 6.99211 12.3523Z" stroke="white" stroke-width="1.5" stroke-linecap="round" stroke-linejoin="round"/>
</svg>
