<svg width="17" height="17" viewBox="0 0 17 17" fill="none" xmlns="http://www.w3.org/2000/svg">
<path d="M3.87191 11.666C3.71191 13.5927 4.93213 14.8327 7.09857 15.166C9.26502 15.4993 8.319 15.746 10.2919 15.166C12.2648 14.586 13.9586 13.4127 13.5986 11.266C13.2186 9.01268 11.0452 7.16602 8.75857 7.16602C6.27857 7.16602 4.07857 9.19268 3.87191 11.666Z" stroke="white" stroke-linecap="round" stroke-linejoin="round"/>
<path d="M10.9323 6.49935C11.3005 6.49935 11.599 6.20087 11.599 5.83268C11.599 5.46449 11.3005 5.16602 10.9323 5.16602C10.5641 5.16602 10.2656 5.46449 10.2656 5.83268C10.2656 6.20087 10.5641 6.49935 10.9323 6.49935Z" stroke="white" stroke-linecap="round" stroke-linejoin="round"/>
<path d="M6.59896 7.5L6.26562 6.5" stroke="white" stroke-width="0.666667"/>
<path d="M10.2656 7.16667L10.599 6.5" stroke="white" stroke-width="0.666667"/>
<path d="M6.2653 6.49935C6.63349 6.49935 6.93197 6.20087 6.93197 5.83268C6.93197 5.46449 6.63349 5.16602 6.2653 5.16602C5.89711 5.16602 5.59863 5.46449 5.59863 5.83268C5.59863 6.20087 5.89711 6.49935 6.2653 6.49935Z" stroke="white" stroke-linecap="round" stroke-linejoin="round"/>
<path d="M13.5986 13.1667L15.3586 10.82C15.4355 10.7175 15.5986 10.7719 15.5986 10.9V15.1667" stroke="white" stroke-width="0.666667"/>
<path d="M4.26562 13.1667L2.50562 10.82C2.42874 10.7175 2.26562 10.7719 2.26562 10.9V15.1667" stroke="white" stroke-width="0.666667"/>
<path d="M12.9321 9.16667L14.6921 6.82C14.769 6.71749 14.9321 6.77187 14.9321 6.9V9.5" stroke="white" stroke-width="0.666667"/>
<path d="M4.93213 9.16667L3.17213 6.82C3.09525 6.71749 2.93213 6.77187 2.93213 6.9V9.5" stroke="white" stroke-width="0.666667"/>
</svg>
