<svg width="23" height="23" viewBox="0 0 23 23" fill="none" xmlns="http://www.w3.org/2000/svg">
<g clip-path="url(#clip0_544_220)">
<path d="M17.8452 10.0636C18.1663 10.3818 18.4873 10.7 18.7014 11.0182C17.5776 12.344 15.1159 14.7835 11.9585 15.0487C9.55032 15.3138 7.0351 14.2002 4.5734 11.7606L3.87771 11.0712C6.23238 8.52562 8.64056 7.09373 10.9952 6.98766C13.885 6.77553 16.3467 8.57865 17.8452 10.0636ZM18.9155 9.00291C15.9721 6.0861 9.44329 1.84346 1.89765 11.0182C2.4328 11.6546 2.96795 12.291 3.5031 12.8213C13.0823 22.3142 20.628 11.0182 20.628 11.0182C20.628 11.0182 20.0393 10.1166 18.9155 9.00291ZM16.6678 11.0182C11.3163 5.71487 5.9648 11.0182 5.9648 11.0182C12.3866 8.89685 16.6678 11.0182 16.6678 11.0182Z" fill="#83BF4F"/>
<path fill-rule="evenodd" clip-rule="evenodd" d="M17.8452 10.0636C18.1663 10.3818 18.4873 10.7 18.7014 11.0182C17.5776 12.344 15.1159 14.7835 11.9585 15.0487C9.55032 15.3138 7.0351 14.2002 4.5734 11.7606L3.87771 11.0712C6.23238 8.52562 8.64056 7.09373 10.9952 6.98766C13.885 6.77553 16.3467 8.57865 17.8452 10.0636ZM16.6678 11.0182C11.3163 5.71487 5.9648 11.0182 5.9648 11.0182C12.3866 8.89685 16.6678 11.0182 16.6678 11.0182Z" fill="#83BF4F"/>
<path d="M5.90137 11.0001C7.91955 9 13.9741 8.99999 16.4968 11L5.90137 11.0001Z" fill="white" stroke="white" stroke-width="0.3"/>
</g>
<defs>
<clipPath id="clip0_544_220">
<rect width="18.1527" height="18.011" fill="white" transform="matrix(0.966507 0.256641 -0.261013 0.965335 4.89209 0)"/>
</clipPath>
</defs>
</svg>
