<svg width="17" height="17" viewBox="0 0 17 17" fill="none" xmlns="http://www.w3.org/2000/svg">
<path d="M8.93213 10.5C10.0367 10.5 10.9321 9.60457 10.9321 8.5C10.9321 7.39543 10.0367 6.5 8.93213 6.5C7.82756 6.5 6.93213 7.39543 6.93213 8.5C6.93213 9.60457 7.82756 10.5 8.93213 10.5Z" stroke="white" stroke-width="1.5" stroke-miterlimit="10" stroke-linecap="round" stroke-linejoin="round"/>
<path d="M2.26562 9.0863V7.91297C2.26562 7.21963 2.83229 6.6463 3.53229 6.6463C4.73896 6.6463 5.23229 5.79297 4.62563 4.7463C4.27896 4.1463 4.48562 3.3663 5.09229 3.01963L6.24562 2.35963C6.77229 2.0463 7.45229 2.23297 7.76563 2.75963L7.83896 2.8863C8.43896 3.93297 9.42562 3.93297 10.0323 2.8863L10.1056 2.75963C10.419 2.23297 11.099 2.0463 11.6256 2.35963L12.779 3.01963C13.3856 3.3663 13.5923 4.1463 13.2456 4.7463C12.639 5.79297 13.1323 6.6463 14.339 6.6463C15.0323 6.6463 15.6056 7.21297 15.6056 7.91297V9.0863C15.6056 9.77963 15.039 10.353 14.339 10.353C13.1323 10.353 12.639 11.2063 13.2456 12.253C13.5923 12.8596 13.3856 13.633 12.779 13.9796L11.6256 14.6396C11.099 14.953 10.419 14.7663 10.1056 14.2396L10.0323 14.113C9.43229 13.0663 8.44562 13.0663 7.83896 14.113L7.76563 14.2396C7.45229 14.7663 6.77229 14.953 6.24562 14.6396L5.09229 13.9796C4.48562 13.633 4.27896 12.853 4.62563 12.253C5.23229 11.2063 4.73896 10.353 3.53229 10.353C2.83229 10.353 2.26562 9.77963 2.26562 9.0863Z" stroke="white" stroke-width="1.5" stroke-miterlimit="10" stroke-linecap="round" stroke-linejoin="round"/>
</svg>
