<svg width="17" height="17" viewBox="0 0 17 17" fill="none" xmlns="http://www.w3.org/2000/svg">
<path d="M12.4121 1.83398H6.90549C6.63883 1.83398 6.38548 1.92732 6.17881 2.08732L4.71881 3.25399C4.13214 3.72065 4.13214 4.60731 4.71881 5.07397L6.17881 6.24064C6.38548 6.40731 6.64549 6.49398 6.90549 6.49398H12.4121C13.0588 6.49398 13.5788 5.97398 13.5788 5.32731V2.99398C13.5788 2.35398 13.0588 1.83398 12.4121 1.83398Z" stroke="white" stroke-width="1.5" stroke-linecap="round" stroke-linejoin="round"/>
<path d="M5.46549 8.5H10.9722C11.2388 8.5 11.4922 8.59334 11.6989 8.75334L13.1589 9.92C13.7455 10.3867 13.7455 11.2733 13.1589 11.74L11.6989 12.9067C11.4922 13.0733 11.2322 13.16 10.9722 13.16H5.46549C4.81883 13.16 4.29883 12.64 4.29883 11.9933V9.65999C4.29883 9.01999 4.81883 8.5 5.46549 8.5Z" stroke="white" stroke-width="1.5" stroke-linecap="round" stroke-linejoin="round"/>
<path d="M8.93213 8.5V6.5" stroke="white" stroke-width="1.5" stroke-linecap="round" stroke-linejoin="round"/>
<path d="M8.93213 15.166V13.166" stroke="white" stroke-width="1.5" stroke-linecap="round" stroke-linejoin="round"/>
<path d="M6.93213 15.166H10.9321" stroke="white" stroke-width="1.5" stroke-linecap="round" stroke-linejoin="round"/>
</svg>
